# xmcd CD database file
#
# Track frame offsets:
#	150
#	20867
#	42372
#	74352
#
# Disc length: 1174 seconds
#
# Revision: 1
# Processed by: cddbd v1.5PL3 Copyright (c) Steve Scherf et al.
# Submitted via: CDex 1.51
#
DISCID=35049404
DTITLE=Favorite Blue - Let me go!
DYEAR=1998
DGENRE=JPop
TTITLE0=Let me go!
TTITLE1=Let me go! (A.C.D. Remix)
TTITLE2=Let me go! (Instrumental)
TTITLE3=CD-EXTRA
EXTD=YEAR: 1998
EXTT0=
EXTT1=
EXTT2=
EXTT3=
PLAYORDER=
